<svg width="400" height="345" viewBox="0 0 400 345" fill="none" xmlns="http://www.w3.org/2000/svg">
<g clip-path="url(#clip0_3_23236)">
<path d="M127.759 47.6382C124.543 30.3922 129.606 10.772 143.676 0.333008C142.878 19.3953 148.835 38.1258 160.491 53.2106C165.007 59.0119 170.634 64.993 170.459 72.349C170.35 76.9261 167.88 81.19 164.625 84.4024C161.37 87.6148 157.36 89.9308 153.398 92.2108L152.782 93.1722C141.168 80.0442 130.974 64.8841 127.759 47.6382Z" fill="#049C24"/>
<path d="M143.932 0.59657C138.021 13.855 136.428 28.6431 139.381 42.8602C139.962 45.9321 141.023 48.893 142.525 51.6339C144.073 54.2564 146.294 56.4156 148.957 57.8869C151.413 59.3087 154.089 60.4782 156.157 62.4734C157.2 63.5105 158.013 64.7569 158.542 66.1309C159.071 67.5048 159.304 68.9753 159.226 70.4459C159.127 74.1152 157.718 77.5301 156.225 80.8215C154.566 84.4761 152.786 88.2457 152.894 92.3544C152.907 92.8522 152.135 92.8434 152.122 92.3463C151.935 85.1978 157.092 79.4568 158.241 72.5976C158.778 69.3969 158.355 66.015 156.109 63.534C154.146 61.3645 151.387 60.1562 148.889 58.7381C146.27 57.3409 144.032 55.3224 142.371 52.8588C140.736 50.2035 139.563 47.2885 138.903 44.2387C137.308 37.3964 136.796 30.3453 137.387 23.3437C138.016 15.3492 140.006 7.52146 143.27 0.199317C143.472 -0.253794 144.133 0.146423 143.932 0.59657Z" fill="white"/>
<path d="M138.161 38.3385C135.714 38.5112 133.285 37.8063 131.308 36.3499C129.331 34.8934 127.936 32.7802 127.37 30.3877C127.257 29.9032 128.003 29.7048 128.116 30.1899C128.639 32.4189 129.939 34.3872 131.783 35.7396C133.626 37.0921 135.891 37.7396 138.169 37.5653C138.664 37.528 138.654 38.3015 138.161 38.3385Z" fill="white"/>
<path d="M147.618 57.3303C150.94 53.5651 152.724 48.6833 152.615 43.6582C152.604 43.1604 153.375 43.169 153.386 43.6663C153.491 48.8957 151.624 53.9722 148.158 57.8828C147.827 58.2553 147.289 57.7008 147.618 57.3303Z" fill="white"/>
<path d="M138.921 15.8294C139.881 15.9603 140.86 15.8501 141.768 15.5085C142.675 15.1669 143.484 14.6047 144.122 13.8724C144.448 13.4959 144.985 14.0508 144.662 14.4249C143.954 15.2307 143.059 15.8505 142.057 16.2301C141.055 16.6097 139.975 16.7376 138.913 16.6026C138.811 16.5983 138.715 16.5555 138.645 16.4829C138.574 16.4104 138.533 16.3135 138.531 16.2119C138.532 16.1096 138.574 16.012 138.647 15.9403C138.72 15.8687 138.818 15.8288 138.921 15.8294Z" fill="white"/>
<path d="M201.215 14.5978C201.018 14.8387 200.822 15.0796 200.627 15.3269C197.999 18.5794 195.638 22.0404 193.57 25.676C193.405 25.9545 193.243 26.2393 193.087 26.5219C188.196 35.334 184.98 44.9795 183.602 54.9681C183.057 58.9433 182.816 62.9543 182.878 66.9663C182.965 72.507 183.499 78.5076 181.805 83.6035C181.634 84.1372 181.43 84.6597 181.195 85.1681L153.999 93.8514C153.928 93.8401 153.858 93.835 153.786 93.8238L152.716 94.2202C152.698 94.0135 152.684 93.7988 152.667 93.5921C152.656 93.4722 152.651 93.3504 152.64 93.2306C152.635 93.1501 152.63 93.0694 152.621 92.9971C152.619 92.9703 152.617 92.9434 152.618 92.9228C152.608 92.8504 152.607 92.7822 152.6 92.7161C152.519 91.5159 152.444 90.3138 152.382 89.1076C152.38 89.1014 152.38 89.1014 152.384 89.0932C151.917 79.9067 152.212 70.6004 153.906 61.6347C153.957 61.365 154.006 61.0891 154.07 60.8154C154.856 56.7784 155.97 52.8125 157.401 48.9573C158.191 46.8489 159.088 44.7819 160.086 42.7643C162.677 37.556 166.07 32.7886 170.139 28.6368C178.252 20.3614 188.916 14.7785 200.342 14.6027C200.634 14.5984 200.921 14.5959 201.215 14.5978Z" fill="#049C24"/>
<path d="M201.264 14.9632C188.579 21.9826 178.423 32.8292 172.239 45.9623C170.858 48.7658 169.926 51.7701 169.479 54.8644C169.139 57.8928 169.616 60.9569 170.858 63.7384C171.964 66.3552 173.398 68.9035 173.851 71.7443C174.061 73.2018 173.961 74.6874 173.558 76.1036C173.155 77.5198 172.457 78.8345 171.512 79.9617C169.228 82.8317 166.052 84.7083 162.882 86.4353C159.363 88.3528 155.677 90.2885 153.294 93.634C153.005 94.0394 152.395 93.5668 152.683 93.162C156.828 87.3415 164.395 85.8691 169.433 81.0858C171.784 78.8538 173.478 75.8982 173.176 72.5625C172.911 69.6456 171.435 67.0165 170.292 64.3766C169.04 61.681 168.466 58.7193 168.62 55.7501C168.91 52.6429 169.724 49.6077 171.029 46.7744C173.867 40.3489 177.694 34.4103 182.372 29.1763C187.678 23.1731 193.969 18.1237 200.974 14.2466C201.408 14.0068 201.695 14.725 201.264 14.9632Z" fill="white"/>
<path d="M173.982 41.6162C171.924 40.2774 170.408 38.249 169.705 35.8934C169.002 33.5378 169.157 31.0084 170.143 28.7568C170.344 28.302 171.059 28.5936 170.857 29.0491C169.935 31.1441 169.791 33.5003 170.451 35.6925C171.11 37.8846 172.53 39.7684 174.453 41.0037C174.871 41.2727 174.398 41.8836 173.982 41.6162Z" fill="white"/>
<path d="M170.123 62.4859C175.037 61.4842 179.395 58.6629 182.326 54.5845C182.617 54.1802 183.227 54.6527 182.938 55.0565C179.879 59.2949 175.339 62.2216 170.222 63.2527C169.734 63.3507 169.638 62.5833 170.123 62.4859Z" fill="white"/>
<path d="M188.111 24.1019C188.799 24.7862 189.647 25.2884 190.577 25.5634C191.507 25.8384 192.491 25.8777 193.44 25.6776C193.926 25.5735 194.022 26.341 193.539 26.4444C192.489 26.6606 191.403 26.6159 190.375 26.3143C189.346 26.0128 188.408 25.4634 187.64 24.7143C187.562 24.6498 187.511 24.5578 187.498 24.4571C187.485 24.3564 187.511 24.2545 187.57 24.1721C187.633 24.0913 187.725 24.0386 187.826 24.0254C187.927 24.0123 188.03 24.0398 188.111 24.1019Z" fill="white"/>
<path d="M282.996 130.735C283.068 131.051 283.115 131.372 283.136 131.696L308.254 146.217L314.359 142.695L320.867 151.234L310.664 158.522C309.84 159.111 308.847 159.416 307.835 159.391C306.823 159.366 305.847 159.013 305.052 158.385L279.151 137.908C277.982 138.342 276.709 138.408 275.502 138.099C274.294 137.79 273.209 137.12 272.391 136.178C271.573 135.235 271.06 134.066 270.921 132.825C270.782 131.583 271.024 130.329 271.614 129.229C272.203 128.128 273.114 127.234 274.223 126.665C275.332 126.095 276.588 125.878 277.824 126.041C279.06 126.205 280.216 126.742 281.14 127.58C282.064 128.418 282.712 129.519 282.996 130.735Z" fill="#FFB6B6"/>
<path d="M308.603 144.614C308.682 144.244 308.841 143.895 309.067 143.592C309.294 143.288 309.583 143.037 309.915 142.856L321.511 136.524C323.055 135.356 324.999 134.849 326.915 135.115C328.832 135.381 330.565 136.398 331.734 137.942C332.904 139.487 333.415 141.433 333.154 143.354C332.894 145.276 331.884 147.015 330.346 148.191L321.051 157.653C320.786 157.923 320.466 158.133 320.113 158.268C319.759 158.403 319.381 158.46 319.004 158.435C318.626 158.41 318.259 158.304 317.926 158.124C317.594 157.944 317.303 157.694 317.076 157.391L309.074 146.759C308.846 146.456 308.686 146.108 308.604 145.738C308.523 145.368 308.522 144.985 308.603 144.614Z" fill="#FFE038"/>
<path d="M328.795 108.317C330.464 102.988 334.258 98.1007 339.505 96.2992C344.753 94.4978 352.436 97.242 356.381 101.182C363.598 108.389 363.82 117.212 358.862 125.037C357.876 124.984 354.473 124.946 353.475 124.908L352.063 120.192V124.862C344.273 124.62 336.162 124.771 328.048 124.928C327.32 119.388 327.127 113.646 328.795 108.317Z" fill="#2F2E41"/>
<path d="M327.087 331.479H319.982L316.602 304.013L327.089 304.014L327.087 331.479Z" fill="#FFB6B6"/>
<path d="M370.879 331.479H363.773L360.393 304.013L370.88 304.014L370.879 331.479Z" fill="#FFB6B6"/>
<path d="M350.131 162.787L351.741 166.982L351.419 171.178L319.91 182.115L321.473 163.756L325.015 159.561L350.131 162.787Z" fill="#FFB6B6"/>
<path d="M340.168 125.037C346.384 125.037 351.422 119.987 351.422 113.759C351.422 107.53 346.384 102.48 340.168 102.48C333.953 102.48 328.915 107.53 328.915 113.759C328.915 119.987 333.953 125.037 340.168 125.037Z" fill="#FFB7B7"/>
<path d="M357.186 182.036V189.204C357.186 189.204 365.558 200.107 361.05 208.497L373.967 320.153H360.443L337.866 225.923L328.243 318.216H316.651L315.269 244.813C314.905 225.506 318.122 206.299 324.755 188.168L357.186 182.036Z" fill="#2F2E41"/>
<path d="M332.436 99.0726C334.598 97.7515 337.075 97.0369 339.607 97.0034C342.14 96.97 344.634 97.6189 346.831 98.8824C349.027 100.146 350.845 101.978 352.093 104.186C353.341 106.394 353.974 108.898 353.926 111.436C347.636 111.725 341.028 111.801 334.327 111.814L332.743 107.93L331.81 111.817C329.768 111.817 327.722 111.814 325.673 111.809C325.589 109.278 326.17 106.77 327.357 104.535C328.544 102.3 330.295 100.417 332.436 99.0726Z" fill="#2F2E41"/>
<path d="M330.266 345H325.224L324.324 340.23L322.019 345H308.646C308.005 345 307.381 344.795 306.865 344.414C306.348 344.034 305.967 343.497 305.776 342.884C305.586 342.271 305.595 341.613 305.804 341.005C306.013 340.398 306.411 339.874 306.938 339.509L317.617 332.118V327.295L328.849 327.967L330.266 345Z" fill="#2F2E41"/>
<path d="M374.702 345H369.66L368.76 340.23L366.455 345H353.082C352.441 345 351.817 344.795 351.301 344.414C350.785 344.034 350.403 343.497 350.212 342.884C350.022 342.271 350.031 341.613 350.24 341.005C350.449 340.398 350.847 339.874 351.374 339.509L362.053 332.118V327.295L373.285 327.967L374.702 345Z" fill="#2F2E41"/>
<path d="M362.306 205.025C362.932 196.411 362.287 187.751 360.393 179.325C358.003 168.691 354.966 155.16 354.907 154.81C354.906 154.804 354.905 154.797 354.905 154.79L353.979 134.97C353.977 134.912 353.952 134.858 353.912 134.817C353.871 134.777 353.816 134.753 353.759 134.751L347.355 134.536C347.296 134.534 347.24 134.509 347.199 134.466C347.158 134.423 347.134 134.366 347.134 134.307C347.134 133.829 347.041 133.355 346.858 132.914C346.675 132.472 346.408 132.071 346.071 131.732C345.733 131.394 345.333 131.126 344.892 130.943C344.451 130.76 343.979 130.666 343.502 130.666H330.713C329.884 130.667 329.085 130.97 328.463 131.519C327.842 132.069 327.443 132.826 327.34 133.65C327.334 133.707 327.307 133.759 327.264 133.797C327.222 133.835 327.167 133.855 327.11 133.854L322.133 133.686C322.083 133.684 322.034 133.699 321.993 133.728C321.953 133.757 321.922 133.798 321.907 133.846L321.561 134.948C316.537 151.162 315.142 168.286 317.476 185.101C318.078 189.575 317.805 196.304 317.577 200.052C317.555 200.419 317.605 200.786 317.724 201.133C317.844 201.48 318.03 201.8 318.274 202.074C318.517 202.349 318.812 202.573 319.142 202.733C319.471 202.893 319.829 202.986 320.195 203.007C329.447 203.54 355.642 216.242 361.914 210.178C361.929 210.163 362.096 207.926 362.306 205.025Z" fill="#FFE038"/>
<path d="M310.999 130.735C311.07 131.051 311.117 131.372 311.138 131.696L336.256 146.217L342.361 142.695L348.87 151.234L338.666 158.522C337.842 159.111 336.85 159.416 335.838 159.391C334.826 159.366 333.849 159.013 333.054 158.385L307.154 137.908C305.985 138.342 304.712 138.408 303.504 138.099C302.297 137.79 301.211 137.12 300.393 136.178C299.575 135.235 299.062 134.066 298.923 132.825C298.785 131.583 299.026 130.329 299.616 129.229C300.206 128.128 301.116 127.234 302.225 126.665C303.335 126.095 304.591 125.878 305.826 126.041C307.062 126.205 308.219 126.742 309.143 127.58C310.067 128.418 310.714 129.519 310.999 130.735Z" fill="#FFB6B6"/>
<path d="M336.605 144.614C336.685 144.244 336.843 143.895 337.07 143.591C337.296 143.288 337.585 143.037 337.917 142.856L349.514 136.524C351.058 135.356 353.001 134.85 354.917 135.116C356.834 135.382 358.566 136.399 359.736 137.943C360.905 139.488 361.416 141.434 361.156 143.355C360.895 145.276 359.886 147.015 358.348 148.191L349.054 157.653C348.789 157.923 348.468 158.133 348.115 158.268C347.762 158.403 347.383 158.459 347.006 158.435C346.629 158.41 346.261 158.304 345.929 158.124C345.596 157.944 345.306 157.694 345.078 157.391L337.076 146.759C336.848 146.456 336.688 146.108 336.607 145.738C336.526 145.368 336.525 144.985 336.605 144.614Z" fill="#FFE038"/>
<path d="M29.3042 305.873C45.4884 305.873 58.6083 292.725 58.6083 276.506C58.6083 260.287 45.4884 247.139 29.3042 247.139C13.1199 247.139 0 260.287 0 276.506C0 292.725 13.1199 305.873 29.3042 305.873Z" fill="#D8DAFE"/>
<path d="M288.257 174.598L75.894 272.308C72.8712 273.695 69.423 273.823 66.3058 272.665C63.1886 271.507 60.6571 269.157 59.2666 266.131L6.86067 151.741C5.47701 148.712 5.34888 145.256 6.50438 142.132C7.65989 139.008 10.0047 136.471 13.0243 135.078L225.387 37.368C228.41 35.9814 231.858 35.853 234.975 37.011C238.092 38.1689 240.624 40.5188 242.014 43.5449L294.421 157.935C295.804 160.964 295.932 164.42 294.777 167.544C293.621 170.668 291.277 173.205 288.257 174.598Z" fill="white"/>
<path d="M16.5565 142.788C15.5755 143.241 14.8137 144.065 14.4384 145.08C14.063 146.094 14.1046 147.217 14.5541 148.201L66.9601 262.591C67.4118 263.575 68.2342 264.338 69.2469 264.714C70.2595 265.09 71.3797 265.049 72.3617 264.598L284.725 166.888C285.706 166.436 286.467 165.611 286.843 164.597C287.218 163.582 287.176 162.459 286.727 161.475L234.321 47.0847C233.869 46.1017 233.047 45.3383 232.034 44.9621C231.022 44.5859 229.901 44.6276 228.919 45.0781L16.5565 142.788Z" fill="#FA7309"/>
<g filter="url(#filter0_d_3_23236)">
<path d="M288.257 174.598L75.894 272.308C72.8712 273.695 69.423 273.823 66.3058 272.665C63.1886 271.507 60.6571 269.157 59.2666 266.131L6.86067 151.741C5.47701 148.712 5.34888 145.256 6.50438 142.132C7.65989 139.008 10.0047 136.471 13.0243 135.078L225.387 37.368C228.41 35.9814 231.858 35.853 234.975 37.011C238.092 38.1689 240.624 40.5188 242.014 43.5449L294.421 157.935C295.804 160.964 295.932 164.42 294.777 167.544C293.621 170.668 291.277 173.205 288.257 174.598ZM13.5677 136.264C10.8617 137.513 8.76042 139.786 7.72493 142.586C6.68945 145.385 6.8043 148.482 8.04427 151.196L60.4502 265.587C61.6963 268.299 63.9649 270.404 66.7583 271.442C69.5517 272.48 72.6418 272.365 75.3506 271.122L287.713 173.412C290.419 172.163 292.521 169.89 293.556 167.09C294.592 164.291 294.477 161.194 293.237 158.48L240.831 44.0895C239.585 41.3777 237.316 39.2719 234.523 38.2342C231.729 37.1965 228.639 37.3116 225.931 38.5542L13.5677 136.264Z" fill="#CACACA"/>
</g>
<path d="M235.193 122.69L66.4833 200.314C65.1244 200.937 63.6069 201.125 62.1378 200.851C60.6688 200.577 59.3198 199.856 58.275 198.786L8.91398 148.057C8.10444 147.225 7.50603 146.21 7.16906 145.098C6.83208 143.986 6.7664 142.81 6.97752 141.667C7.18864 140.524 7.6704 139.449 8.38229 138.532C9.09419 137.615 10.0154 136.882 11.0685 136.396L227.28 36.5116C228.319 36.0317 229.457 35.8054 230.601 35.8513C231.744 35.8971 232.861 36.2138 233.858 36.7754C234.856 37.3369 235.707 38.1274 236.341 39.082C236.976 40.0366 237.375 41.1283 237.507 42.2674L237.536 42.2667L239.412 115.908C239.449 117.328 239.069 118.728 238.319 119.934C237.569 121.14 236.482 122.098 235.193 122.69ZM227.833 37.6935L11.6135 137.581C10.7498 137.98 9.9942 138.581 9.41031 139.333C8.82642 140.086 8.43129 140.967 8.25813 141.905C8.08496 142.842 8.13883 143.807 8.4152 144.719C8.69157 145.631 9.18238 146.463 9.84635 147.145L59.2073 197.874C60.0642 198.752 61.1707 199.344 62.3756 199.568C63.5806 199.793 64.8253 199.639 65.9399 199.128L234.649 121.504C235.707 121.018 236.598 120.232 237.213 119.243C237.829 118.254 238.14 117.106 238.11 115.941L236.251 42.9525C236.226 41.9676 235.957 41.0043 235.469 40.149C234.981 39.2937 234.289 38.5732 233.454 38.052C232.62 37.5307 231.67 37.2252 230.689 37.1626C229.707 37.1 228.726 37.2824 227.833 37.6935Z" fill="#CACACA"/>
<path d="M129.397 227.702L76.8337 251.887C76.4523 252.063 76.04 252.162 75.6204 252.178C75.2009 252.194 74.7822 252.127 74.3884 251.981C73.9947 251.835 73.6335 251.613 73.3255 251.327C73.0176 251.041 72.7689 250.697 72.5937 250.314C72.4185 249.932 72.3202 249.519 72.3045 249.098C72.2888 248.678 72.3559 248.258 72.502 247.864C72.6481 247.469 72.8704 247.107 73.1562 246.799C73.4419 246.491 73.7854 246.242 74.1672 246.067L126.73 221.882C127.5 221.529 128.379 221.496 129.173 221.792C129.967 222.087 130.611 222.686 130.964 223.457C131.318 224.229 131.351 225.109 131.057 225.905C130.763 226.701 130.166 227.348 129.397 227.702Z" fill="white"/>
<path d="M167.851 152.957C168.753 154.921 169.26 157.045 169.343 159.206C169.426 161.367 169.083 163.523 168.334 165.552C167.585 167.58 166.444 169.44 164.977 171.026C163.51 172.613 161.746 173.893 159.784 174.796C157.823 175.698 155.704 176.204 153.547 176.285C151.39 176.366 149.239 176.021 147.216 175.268C145.193 174.515 143.337 173.371 141.756 171.899C140.175 170.427 138.898 168.658 138 166.691" fill="#CACACA"/>
<path d="M286.364 330.188H52.6881C49.3636 330.184 46.1764 328.859 43.8257 326.503C41.4749 324.148 40.1527 320.953 40.1489 317.622V191.751C40.1527 188.42 41.475 185.226 43.8258 182.87C46.1765 180.514 49.3637 179.189 52.6881 179.185H286.364C289.688 179.189 292.875 180.514 295.226 182.87C297.577 185.226 298.899 188.42 298.903 191.751V317.622C298.899 320.953 297.577 324.148 295.226 326.503C292.875 328.859 289.688 330.184 286.364 330.188Z" fill="white"/>
<path d="M52.6878 187.669C51.6078 187.67 50.5724 188.101 49.8087 188.866C49.045 189.632 48.6155 190.669 48.6143 191.751V317.622C48.6155 318.704 49.045 319.742 49.8087 320.507C50.5724 321.272 51.6078 321.703 52.6878 321.704H286.363C287.443 321.703 288.479 321.272 289.242 320.507C290.006 319.742 290.436 318.704 290.437 317.622V191.751C290.436 190.669 290.006 189.632 289.242 188.866C288.479 188.101 287.443 187.67 286.363 187.669H52.6878Z" fill="#43B55B"/>
<g filter="url(#filter1_d_3_23236)">
<path d="M286.364 330.188H52.6881C49.3636 330.184 46.1764 328.859 43.8257 326.503C41.4749 324.148 40.1527 320.953 40.1489 317.622V191.751C40.1527 188.42 41.475 185.226 43.8258 182.87C46.1765 180.514 49.3637 179.189 52.6881 179.185H286.364C289.688 179.189 292.875 180.514 295.226 182.87C297.577 185.226 298.899 188.42 298.903 191.751V317.622C298.899 320.953 297.577 324.148 295.226 326.503C292.875 328.859 289.688 330.184 286.364 330.188ZM52.6881 180.491C49.709 180.494 46.8528 181.681 44.7462 183.792C42.6397 185.904 41.4547 188.766 41.4513 191.751V317.622C41.4547 320.607 42.6397 323.47 44.7462 325.581C46.8528 327.692 49.709 328.879 52.6881 328.883H286.364C289.343 328.879 292.199 327.692 294.305 325.581C296.412 323.47 297.597 320.607 297.6 317.622V191.751C297.597 188.766 296.412 185.904 294.305 183.792C292.199 181.681 289.343 180.494 286.364 180.491H52.6881Z" fill="#3F3D56"/>
</g>
<path d="M259.751 260.825H74.1096C72.6154 260.823 71.1583 260.359 69.9371 259.496C68.716 258.633 67.7903 257.413 67.2865 256.004L43.5484 189.262C43.1591 188.167 43.0377 186.995 43.1944 185.843C43.3511 184.692 43.7813 183.595 44.4489 182.645C45.1165 181.695 46.002 180.919 47.0309 180.383C48.0597 179.847 49.202 179.567 50.3615 179.565L288.44 179.198C289.584 179.197 290.713 179.467 291.733 179.987C292.753 180.507 293.635 181.261 294.308 182.189C294.981 183.116 295.426 184.191 295.605 185.323C295.783 186.456 295.692 187.615 295.338 188.706L295.365 188.717L266.409 256.426C265.851 257.732 264.923 258.846 263.739 259.628C262.555 260.41 261.169 260.826 259.751 260.825ZM288.45 180.503L50.3633 180.87C49.4122 180.872 48.4754 181.102 47.6315 181.541C46.7877 181.981 46.0614 182.617 45.5138 183.396C44.9663 184.176 44.6134 185.075 44.4849 186.02C44.3563 186.964 44.4559 187.925 44.7752 188.823L68.5132 255.565C68.9264 256.722 69.6856 257.722 70.6872 258.43C71.6888 259.137 72.884 259.518 74.1096 259.52H259.751C260.914 259.521 262.051 259.179 263.022 258.538C263.993 257.896 264.754 256.983 265.212 255.912L293.911 188.803C294.298 187.897 294.455 186.909 294.367 185.928C294.28 184.947 293.951 184.002 293.41 183.18C292.868 182.357 292.132 181.682 291.266 181.215C290.401 180.748 289.433 180.504 288.45 180.503Z" fill="#3F3D56"/>
<path d="M119.882 312.022H62.044C61.1965 312.022 60.3838 311.685 59.7845 311.085C59.1853 310.484 58.8486 309.669 58.8486 308.82C58.8486 307.971 59.1853 307.156 59.7845 306.556C60.3838 305.955 61.1965 305.618 62.044 305.618H119.882C120.73 305.618 121.542 305.955 122.142 306.556C122.741 307.156 123.077 307.971 123.077 308.82C123.077 309.669 122.741 310.484 122.142 311.085C121.542 311.685 120.73 312.022 119.882 312.022Z" fill="white"/>
<path d="M185.949 260.173C185.949 264.538 184.219 268.724 181.139 271.811C178.059 274.898 173.881 276.632 169.526 276.632C165.17 276.632 160.992 274.898 157.912 271.811C154.832 268.724 153.102 264.538 153.102 260.173" fill="#3F3D56"/>
<path d="M82.0518 70.9354C85.2886 70.9354 87.9126 68.3057 87.9126 65.0619C87.9126 61.8181 85.2886 59.1885 82.0518 59.1885C78.8149 59.1885 76.1909 61.8181 76.1909 65.0619C76.1909 68.3057 78.8149 70.9354 82.0518 70.9354Z" fill="#7879F1"/>
<path d="M5.86083 211.898C9.09768 211.898 11.7217 209.268 11.7217 206.025C11.7217 202.781 9.09768 200.151 5.86083 200.151C2.62398 200.151 0 202.781 0 206.025C0 209.268 2.62398 211.898 5.86083 211.898Z" fill="#F4A1AD"/>
<path d="M298.902 101.608C302.139 101.608 304.763 98.9781 304.763 95.7343C304.763 92.4905 302.139 89.8608 298.902 89.8608C295.665 89.8608 293.042 92.4905 293.042 95.7343C293.042 98.9781 295.665 101.608 298.902 101.608Z" fill="#F178B6"/>
<path d="M399.225 345H287.677C287.472 345 287.274 344.918 287.129 344.772C286.984 344.627 286.902 344.429 286.902 344.223C286.902 344.017 286.984 343.819 287.129 343.673C287.274 343.528 287.472 343.446 287.677 343.446H399.225C399.43 343.446 399.626 343.529 399.771 343.674C399.916 343.82 399.998 344.017 399.998 344.223C399.998 344.429 399.916 344.626 399.771 344.772C399.626 344.917 399.43 344.999 399.225 345Z" fill="#CACACA"/>
</g>
<defs>
<filter id="filter0_d_3_23236" x="1.72168" y="34.2266" width="297.838" height="245.223" filterUnits="userSpaceOnUse" color-interpolation-filters="sRGB">
<feFlood flood-opacity="0" result="BackgroundImageFix"/>
<feColorMatrix in="SourceAlpha" type="matrix" values="0 0 0 0 0 0 0 0 0 0 0 0 0 0 0 0 0 0 127 0" result="hardAlpha"/>
<feOffset dy="2"/>
<feGaussianBlur stdDeviation="2"/>
<feComposite in2="hardAlpha" operator="out"/>
<feColorMatrix type="matrix" values="0 0 0 0 0 0 0 0 0 0 0 0 0 0 0 0 0 0 0.1 0"/>
<feBlend mode="normal" in2="BackgroundImageFix" result="effect1_dropShadow_3_23236"/>
<feBlend mode="normal" in="SourceGraphic" in2="effect1_dropShadow_3_23236" result="shape"/>
</filter>
<filter id="filter1_d_3_23236" x="36.1489" y="177.185" width="266.754" height="159.003" filterUnits="userSpaceOnUse" color-interpolation-filters="sRGB">
<feFlood flood-opacity="0" result="BackgroundImageFix"/>
<feColorMatrix in="SourceAlpha" type="matrix" values="0 0 0 0 0 0 0 0 0 0 0 0 0 0 0 0 0 0 127 0" result="hardAlpha"/>
<feOffset dy="2"/>
<feGaussianBlur stdDeviation="2"/>
<feComposite in2="hardAlpha" operator="out"/>
<feColorMatrix type="matrix" values="0 0 0 0 0 0 0 0 0 0 0 0 0 0 0 0 0 0 0.1 0"/>
<feBlend mode="normal" in2="BackgroundImageFix" result="effect1_dropShadow_3_23236"/>
<feBlend mode="normal" in="SourceGraphic" in2="effect1_dropShadow_3_23236" result="shape"/>
</filter>
<clipPath id="clip0_3_23236">
<rect width="400" height="345" fill="white"/>
</clipPath>
</defs>
</svg>
